<svg width="24" height="24" viewBox="0 0 24 21" fill="none" xmlns="http://www.w3.org/2000/svg">
<path fill-rule="evenodd" clip-rule="evenodd" d="M12.1575 3.0975C12.1111 3.08259 12.0613 3.08259 12.015 3.0975L4.34998 5.5875C4.30305 5.60173 4.26183 5.63042 4.23219 5.66948C4.20256 5.70855 4.18603 5.75598 4.18498 5.805V10.5C4.18498 15.57 7.23748 19.3125 12.0225 21.12C12.0637 21.1349 12.1088 21.1349 12.15 21.12C16.935 19.3125 19.9875 15.57 19.9875 10.5V5.805C19.9864 5.75598 19.9699 5.70855 19.9403 5.66948C19.9106 5.63042 19.8694 5.60173 19.8225 5.5875L12.1575 3.0975ZM11.5875 1.77C11.9117 1.66509 12.2608 1.66509 12.585 1.77L20.25 4.26C20.5765 4.36598 20.8611 4.57248 21.0631 4.84998C21.2652 5.12747 21.3743 5.46174 21.375 5.805V10.5C21.375 16.2525 17.8725 20.445 12.6375 22.425C12.2759 22.5525 11.8816 22.5525 11.52 22.425C6.29998 20.4225 2.78998 16.23 2.78998 10.5V5.805C2.79061 5.46174 2.89975 5.12747 3.10181 4.84998C3.30387 4.57248 3.58849 4.36598 3.91498 4.26L11.5875 1.77ZM13.0125 12.0825C13.2916 11.9222 13.5242 11.692 13.6873 11.4145C13.8503 11.137 13.9383 10.8218 13.9425 10.5C13.9586 10.2463 13.9226 9.99201 13.8366 9.75279C13.7506 9.51357 13.6165 9.29452 13.4425 9.10915C13.2686 8.92379 13.0585 8.77605 12.8252 8.67505C12.5919 8.57406 12.3404 8.52195 12.0862 8.52195C11.832 8.52195 11.5805 8.57406 11.3472 8.67505C11.114 8.77605 10.9039 8.92379 10.7299 9.10915C10.556 9.29452 10.4219 9.51357 10.3359 9.75279C10.2499 9.99201 10.2138 10.2463 10.23 10.5C10.2302 10.8257 10.3163 11.1455 10.4796 11.4273C10.6429 11.7091 10.8776 11.9428 11.16 12.105V14.6775C11.1484 14.8061 11.1637 14.9358 11.205 15.0582C11.2463 15.1806 11.3126 15.293 11.3998 15.3884C11.4869 15.4837 11.5929 15.5598 11.7111 15.6119C11.8293 15.664 11.9571 15.6909 12.0862 15.6909C12.2154 15.6909 12.3431 15.664 12.4613 15.6119C12.5795 15.5598 12.6856 15.4837 12.7727 15.3884C12.8598 15.293 12.9262 15.1806 12.9674 15.0582C13.0087 14.9358 13.0241 14.8061 13.0125 14.6775V12.0825Z" fill="black"/>
</svg>
