<svg width="20" height="20" viewBox="0 0 20 20" fill="none" xmlns="http://www.w3.org/2000/svg">
<path d="M13.3867 6.92969C13.3867 6.84375 13.3164 6.77344 13.2305 6.77344L11.9414 6.7793L10 9.09375L8.06055 6.78125L6.76953 6.77539C6.68359 6.77539 6.61328 6.84375 6.61328 6.93164C6.61328 6.96875 6.62695 7.00391 6.65039 7.0332L9.19141 10.0605L6.65039 13.0859C6.62679 13.1146 6.61369 13.1504 6.61328 13.1875C6.61328 13.2734 6.68359 13.3438 6.76953 13.3438L8.06055 13.3379L10 11.0234L11.9395 13.3359L13.2285 13.3418C13.3145 13.3418 13.3848 13.2734 13.3848 13.1855C13.3848 13.1484 13.3711 13.1133 13.3477 13.084L10.8105 10.0586L13.3516 7.03125C13.375 7.00391 13.3867 6.9668 13.3867 6.92969Z" fill="black"/>
<path d="M10 1.26953C5.16797 1.26953 1.25 5.1875 1.25 10.0195C1.25 14.8516 5.16797 18.7695 10 18.7695C14.832 18.7695 18.75 14.8516 18.75 10.0195C18.75 5.1875 14.832 1.26953 10 1.26953ZM10 17.2852C5.98828 17.2852 2.73438 14.0312 2.73438 10.0195C2.73438 6.00781 5.98828 2.75391 10 2.75391C14.0117 2.75391 17.2656 6.00781 17.2656 10.0195C17.2656 14.0312 14.0117 17.2852 10 17.2852Z" fill="black"/>
</svg>
