<svg width="20" height="20" viewBox="0 0 20 20" fill="none" xmlns="http://www.w3.org/2000/svg">
<path d="M11.25 15.625H2.5V16.875H11.25V15.625Z" fill="black"/>
<path d="M15.5188 16.25L17.1313 17.8625L16.25 18.75L13.75 16.25L16.25 13.75L17.1375 14.6312L15.5188 16.25Z" fill="black"/>
<path d="M11.25 9.375H2.5V10.625H11.25V9.375Z" fill="black"/>
<path d="M15.5188 10L17.1313 11.6125L16.25 12.5L13.75 10L16.25 7.5L17.1375 8.38125L15.5188 10Z" fill="black"/>
<path d="M11.25 3.125H2.5V4.375H11.25V3.125Z" fill="black"/>
<path d="M15.5188 3.75L17.1313 5.3625L16.25 6.25L13.75 3.75L16.25 1.25L17.1375 2.13125L15.5188 3.75Z" fill="black"/>
</svg>
