<svg width="18" height="19" viewBox="0 0 18 18" fill="none" xmlns="http://www.w3.org/2000/svg">
<path d="M14.625 0.5H6.75C6.15326 0.5 5.58097 0.737053 5.15901 1.15901C4.73705 1.58097 4.5 2.15326 4.5 2.75C3.90326 2.75 3.33097 2.98705 2.90901 3.40901C2.48705 3.83097 2.25 4.40326 2.25 5V16.25C2.25 16.8467 2.48705 17.419 2.90901 17.841C3.33097 18.2629 3.90326 18.5 4.5 18.5H12.375C12.9717 18.5 13.544 18.2629 13.966 17.841C14.3879 17.419 14.625 16.8467 14.625 16.25C15.2217 16.25 15.794 16.0129 16.216 15.591C16.6379 15.169 16.875 14.5967 16.875 14V2.75C16.875 2.15326 16.6379 1.58097 16.216 1.15901C15.794 0.737053 15.2217 0.5 14.625 0.5V0.5ZM14.625 15.125V5C14.625 4.40326 14.3879 3.83097 13.966 3.40901C13.544 2.98705 12.9717 2.75 12.375 2.75H5.625C5.625 2.45163 5.74353 2.16548 5.9545 1.9545C6.16548 1.74353 6.45163 1.625 6.75 1.625H14.625C14.9234 1.625 15.2095 1.74353 15.4205 1.9545C15.6315 2.16548 15.75 2.45163 15.75 2.75V14C15.75 14.2984 15.6315 14.5845 15.4205 14.7955C15.2095 15.0065 14.9234 15.125 14.625 15.125ZM3.375 5C3.375 4.70163 3.49353 4.41548 3.7045 4.2045C3.91548 3.99353 4.20163 3.875 4.5 3.875H12.375C12.6734 3.875 12.9595 3.99353 13.1705 4.2045C13.3815 4.41548 13.5 4.70163 13.5 5V16.25C13.5 16.5484 13.3815 16.8345 13.1705 17.0455C12.9595 17.2565 12.6734 17.375 12.375 17.375H4.5C4.20163 17.375 3.91548 17.2565 3.7045 17.0455C3.49353 16.8345 3.375 16.5484 3.375 16.25V5Z" fill="black"/>
</svg>
