<svg width="18" height="19" viewBox="0 0 18 19" fill="none" xmlns="http://www.w3.org/2000/svg">
<path fill-rule="evenodd" clip-rule="evenodd" d="M11.0063 1.2905C11.1541 1.23977 11.3141 1.23649 11.4639 1.28113C11.6137 1.32578 11.7458 1.41611 11.8418 1.5395L17.0918 8.2895C17.1942 8.42116 17.2498 8.5832 17.2498 8.75C17.2498 8.9168 17.1942 9.07884 17.0918 9.2105L11.8418 15.9605C11.7458 16.0838 11.6137 16.174 11.464 16.2185C11.3142 16.2631 11.1543 16.2598 11.0065 16.2091C10.8588 16.1584 10.7305 16.0628 10.6397 15.9357C10.5489 15.8085 10.5001 15.6562 10.5 15.5V12.5075C6.46576 12.5915 4.52776 13.3573 3.55426 14.1898C2.62876 14.981 2.45926 15.9118 2.28301 16.8868L2.23726 17.138C2.2036 17.3178 2.10541 17.4791 1.96115 17.5915C1.8169 17.704 1.63652 17.7598 1.45396 17.7486C1.2714 17.7373 1.09925 17.6598 0.969879 17.5305C0.84051 17.4012 0.76285 17.2291 0.751508 17.0465C0.622508 14.9855 0.816008 11.999 2.27176 9.50075C3.68476 7.076 6.22876 5.2115 10.5 5.0165V2C10.5 1.84374 10.5487 1.69136 10.6395 1.56416C10.7303 1.43696 10.8585 1.34129 11.0063 1.2905Z" fill="black"/>
</svg>
