<svg width="19" height="20" viewBox="0 0 20 19" fill="none" xmlns="http://www.w3.org/2000/svg">
<path d="M15.8065 2.64682C18.3468 4.43253 20 7.35317 20 10.6587C20 16.0873 15.5323 20.4881 10.0202 20.5C4.51613 20.5119 0.00807187 16.0952 7.35953e-06 10.6746C-0.0040249 7.36904 1.6492 4.44047 4.18549 2.65079C4.65726 2.32143 5.31452 2.46032 5.59678 2.95635L6.23388 4.07142C6.47178 4.48809 6.35888 5.01587 5.96775 5.30158C4.29436 6.5238 3.22581 8.46031 3.22581 10.6547C3.22178 14.3174 6.22984 17.3254 10 17.3254C13.6936 17.3254 16.7984 14.3809 16.7742 10.6151C16.7621 8.55951 15.7782 6.57539 14.0282 5.29761C13.6371 5.0119 13.5282 4.48412 13.7661 4.07142L14.4032 2.95635C14.6855 2.46428 15.3387 2.31746 15.8065 2.64682ZM11.6129 10.9762V1.45238C11.6129 0.924603 11.1815 0.5 10.6452 0.5H9.35484C8.81855 0.5 8.3871 0.924603 8.3871 1.45238V10.9762C8.3871 11.504 8.81855 11.9286 9.35484 11.9286H10.6452C11.1815 11.9286 11.6129 11.504 11.6129 10.9762Z" fill="black"/>
</svg>
