<svg width="20" height="20" viewBox="0 0 20 20" fill="none" xmlns="http://www.w3.org/2000/svg">
<path d="M15.625 2.51874C15.1469 2.51874 14.6769 2.70624 14.3162 3.06624L8.125 9.23749L7.9875 9.37499L7.95 9.57061L7.51875 11.7581L7.325 12.6756L8.24188 12.4819L10.4294 12.0506L10.625 12.0131L10.7625 11.8756L16.9338 5.68436C17.1922 5.42499 17.3681 5.09493 17.4393 4.73576C17.5106 4.37659 17.4739 4.00438 17.3339 3.66602C17.194 3.32765 16.957 3.03827 16.6529 2.83433C16.3488 2.6304 15.9912 2.52102 15.625 2.51999V2.51874ZM15.625 3.73124C15.7719 3.73124 15.915 3.80624 16.055 3.94561C16.3337 4.22436 16.3337 4.52561 16.055 4.80499L10 10.8587L8.925 11.0737L9.14062 9.99874L15.1956 3.94374C15.335 3.80436 15.4781 3.72936 15.625 3.72936V3.73124ZM2.5 4.99999V17.5H15V9.25749L13.75 10.5075V16.25H3.75V6.24999H9.4925L10.7425 4.99999H2.5Z" fill="black"/>
</svg>
