<svg width="16" height="17" viewBox="0 0 16 15" fill="none" xmlns="http://www.w3.org/2000/svg">
<path d="M0.125 8.5C0.125 10.0575 0.586861 11.5801 1.45218 12.8751C2.31749 14.1702 3.5474 15.1795 4.98637 15.7756C6.42534 16.3716 8.00874 16.5275 9.53634 16.2237C11.0639 15.9198 12.4671 15.1698 13.5685 14.0685C14.6698 12.9671 15.4198 11.5639 15.7237 10.0363C16.0275 8.50874 15.8716 6.92534 15.2756 5.48637C14.6795 4.0474 13.6702 2.81749 12.3751 1.95218C11.0801 1.08686 9.55753 0.625 8 0.625C5.91142 0.625 3.90838 1.45469 2.43153 2.93153C0.954685 4.40838 0.125 6.41142 0.125 8.5ZM3.5 7.9375H10.3344L7.19562 4.78356L8 4L12.5 8.5L8 13L7.19562 12.1973L10.3344 9.0625H3.5V7.9375Z" fill="black"/>
</svg>
