<svg width="18" height="19" viewBox="0 0 18 18" fill="none" xmlns="http://www.w3.org/2000/svg">
<path d="M9 1.625C4.65117 1.625 1.125 5.15117 1.125 9.5C1.125 13.8488 4.65117 17.375 9 17.375C13.3488 17.375 16.875 13.8488 16.875 9.5C16.875 5.15117 13.3488 1.625 9 1.625ZM9 16.0391C5.38945 16.0391 2.46094 13.1105 2.46094 9.5C2.46094 7.93555 3.01113 6.49766 3.92871 5.37266L13.1273 14.5713C12.0023 15.4889 10.5645 16.0391 9 16.0391ZM14.0713 13.6273L4.87266 4.42871C5.99766 3.51113 7.43555 2.96094 9 2.96094C12.6105 2.96094 15.5391 5.88945 15.5391 9.5C15.5391 11.0645 14.9889 12.5023 14.0713 13.6273Z" fill="black"/>
</svg>

