<svg width="18" height="19" viewBox="0 0 18 19" fill="none" xmlns="http://www.w3.org/2000/svg">
<path fill-rule="evenodd" clip-rule="evenodd" d="M7.49997 2C7.50011 1.84359 7.45135 1.69104 7.3605 1.56372C7.26965 1.43639 7.14127 1.34065 6.99332 1.2899C6.84537 1.23915 6.68525 1.23593 6.53537 1.28069C6.3855 1.32544 6.25337 1.41593 6.15747 1.5395L0.907471 8.2895C0.805055 8.42115 0.749451 8.5832 0.749451 8.75C0.749451 8.9168 0.805055 9.07884 0.907471 9.2105L6.15747 15.9605C6.25337 16.0841 6.3855 16.1746 6.53537 16.2193C6.68525 16.2641 6.84537 16.2608 6.99332 16.2101C7.14127 16.1593 7.26965 16.0636 7.3605 15.9363C7.45135 15.809 7.50011 15.6564 7.49997 15.5V12.5075C11.5342 12.5915 13.4722 13.3572 14.4457 14.1897C15.3712 14.981 15.5407 15.9117 15.717 16.8867L15.7627 17.138C15.7964 17.3178 15.8946 17.4791 16.0388 17.5915C16.1831 17.704 16.3635 17.7598 16.546 17.7486C16.7286 17.7373 16.9007 17.6598 17.0301 17.5305C17.1595 17.4012 17.2371 17.2291 17.2485 17.0465C17.3767 14.9855 17.184 11.999 15.7282 9.50075C14.3152 7.076 11.7705 5.2115 7.49997 5.0165V2Z" fill="black"/>
</svg>
