<svg width="20" height="19" viewBox="0 0 21 19" fill="none" xmlns="http://www.w3.org/2000/svg">
<path d="M17.9113 10.98C17.9525 10.66 17.9833 10.34 17.9833 10C17.9833 9.66 17.9525 9.34 17.9113 9.02L20.0805 7.37C20.2759 7.22 20.3273 6.95 20.2039 6.73L18.1478 3.27C18.0244 3.05 17.7468 2.97 17.5207 3.05L14.9608 4.05C14.4262 3.65 13.8505 3.32 13.2234 3.07L12.8328 0.420001C12.8157 0.302342 12.7552 0.194762 12.6624 0.117437C12.5697 0.0401124 12.4511 -0.00164351 12.329 1.01256e-06H8.21679C7.95978 1.01256e-06 7.74389 0.180001 7.71305 0.420001L7.32239 3.07C6.69527 3.32 6.11957 3.66 5.58498 4.05L3.02513 3.05C2.78867 2.96 2.52138 3.05 2.39801 3.27L0.341906 6.73C0.20826 6.95 0.269943 7.22 0.465273 7.37L2.63447 9.02C2.59334 9.34 2.5625 9.67 2.5625 10C2.5625 10.33 2.59334 10.66 2.63447 10.98L0.465273 12.63C0.269943 12.78 0.21854 13.05 0.341906 13.27L2.39801 16.73C2.52138 16.95 2.79895 17.03 3.02513 16.95L5.58498 15.95C6.11957 16.35 6.69527 16.68 7.32239 16.93L7.71305 19.58C7.74389 19.82 7.95978 20 8.21679 20H12.329C12.586 20 12.8019 19.82 12.8328 19.58L13.2234 16.93C13.8505 16.68 14.4262 16.34 14.9608 15.95L17.5207 16.95C17.7571 17.04 18.0244 16.95 18.1478 16.73L20.2039 13.27C20.3273 13.05 20.2759 12.78 20.0805 12.63L17.9113 10.98ZM10.2729 13.5C8.28876 13.5 6.67471 11.93 6.67471 10C6.67471 8.07 8.28876 6.5 10.2729 6.5C12.257 6.5 13.8711 8.07 13.8711 10C13.8711 11.93 12.257 13.5 10.2729 13.5Z" fill="black"/>
</svg>
