<svg width="15" height="15" viewBox="0 0 15 15" fill="none" xmlns="http://www.w3.org/2000/svg">
<path d="M13.3023 5.17237L9.58302 4.63184L7.92041 1.26124C7.875 1.16895 7.8003 1.09424 7.70801 1.04883C7.47657 0.934576 7.19532 1.02979 7.07959 1.26124L5.41699 4.63184L1.69775 5.17237C1.59521 5.18702 1.50146 5.23536 1.42968 5.3086C1.34291 5.39779 1.29509 5.51778 1.29674 5.64221C1.29839 5.76663 1.34937 5.88532 1.43847 5.97218L4.12939 8.59571L3.49365 12.3003C3.47874 12.3865 3.48828 12.4751 3.52118 12.5561C3.55408 12.6372 3.60903 12.7074 3.67979 12.7588C3.75055 12.8102 3.8343 12.8407 3.92153 12.8469C4.00877 12.8531 4.096 12.8348 4.17334 12.794L7.5 11.0449L10.8267 12.794C10.9175 12.8423 11.023 12.8584 11.124 12.8408C11.3789 12.7969 11.5503 12.5552 11.5064 12.3003L10.8706 8.59571L13.5615 5.97218C13.6348 5.9004 13.6831 5.80665 13.6978 5.70411C13.7373 5.44776 13.5586 5.21046 13.3023 5.17237ZM9.73829 8.22657L10.2671 11.3071L7.5 9.85402L4.73291 11.3086L5.26172 8.22804L3.02344 6.04542L6.11719 5.59571L7.5 2.79346L8.88282 5.59571L11.9766 6.04542L9.73829 8.22657Z" fill="black"/>
</svg>
