<svg width="13" height="12" viewBox="0 0 13 12" fill="none" xmlns="http://www.w3.org/2000/svg">
<path d="M12.3024 4.17237L8.58319 3.63184L6.92059 0.261236C6.87518 0.168951 6.80047 0.0942438 6.70819 0.0488336C6.47674 -0.0654243 6.19549 0.0297906 6.07977 0.261236L4.41717 3.63184L0.697927 4.17237C0.595388 4.18702 0.501638 4.23536 0.42986 4.3086C0.343085 4.39779 0.295268 4.51778 0.296916 4.64221C0.298564 4.76663 0.349542 4.88532 0.438649 4.97218L3.12957 7.59571L2.49383 11.3003C2.47892 11.3865 2.48846 11.4751 2.52135 11.5561C2.55425 11.6372 2.6092 11.7074 2.67996 11.7588C2.75073 11.8102 2.83447 11.8407 2.92171 11.8469C3.00894 11.8531 3.09618 11.8348 3.17352 11.794L6.50018 10.0449L9.82684 11.794C9.91766 11.8423 10.0231 11.8584 10.1242 11.8408C10.3791 11.7969 10.5505 11.5552 10.5065 11.3003L9.87079 7.59571L12.5617 4.97218C12.635 4.9004 12.6833 4.80665 12.6979 4.70411C12.7375 4.44776 12.5588 4.21046 12.3024 4.17237Z" fill="black"/>
</svg>
